<?xml version="1.0" encoding="UTF-8" standalone="no"?>
<svg width="26px" height="24px" viewBox="0 0 26 24" version="1.1" xmlns="http://www.w3.org/2000/svg" xmlns:xlink="http://www.w3.org/1999/xlink">
    <!-- Generator: Sketch 40.3 (33839) - http://www.bohemiancoding.com/sketch -->
    <title>facebook</title>
    <desc>Created with Sketch.</desc>
    <defs></defs>
    <g id="Wireframes-&amp;-Mockups" stroke="none" stroke-width="1" fill="none" fill-rule="evenodd">
        <g id="Footer" transform="translate(-417.000000, -75.000000)" fill="#4A4A4A">
            <g id="Group" transform="translate(417.000000, 73.000000)">
                <g id="facebook" transform="translate(0.000000, 2.539258)">
                    <g id="Facebook">
                        <path d="M2.79411765,0 C1.25735294,0 0,1.14266609 0,2.53925798 L0,20.3140638 C0,21.7119254 1.25735294,22.8533218 2.79411765,22.8533218 L12.5735294,22.8533218 L12.5735294,13.9659189 L9.77941176,13.9659189 L9.77941176,10.8235871 L12.5735294,10.8235871 L12.5735294,8.22084771 C12.5735294,5.47337058 14.2667647,3.54353451 17.8348529,3.54353451 L20.35375,3.54607377 L20.35375,6.85345729 L18.6814706,6.85345729 C17.2927941,6.85345729 16.7647059,7.80060052 16.7647059,8.67918378 L16.7647059,10.8248568 L20.3523529,10.8248568 L19.5588235,13.9659189 L16.7647059,13.9659189 L16.7647059,22.8533218 L22.3529412,22.8533218 C23.8897059,22.8533218 25.1470588,21.7119254 25.1470588,20.3140638 L25.1470588,2.53925798 C25.1470588,1.14266609 23.8897059,0 22.3529412,0 L2.79411765,0 Z" id="Shape"></path>
                    </g>
                </g>
            </g>
        </g>
    </g>
</svg>