<?xml version="1.0" encoding="UTF-8" standalone="no"?>
<svg width="27px" height="24px" viewBox="0 0 27 24" version="1.1" xmlns="http://www.w3.org/2000/svg" xmlns:xlink="http://www.w3.org/1999/xlink">
    <!-- Generator: Sketch 40.3 (33839) - http://www.bohemiancoding.com/sketch -->
    <title>instagram</title>
    <desc>Created with Sketch.</desc>
    <defs></defs>
    <g id="Wireframes-&amp;-Mockups" stroke="none" stroke-width="1" fill="none" fill-rule="evenodd">
        <g id="Footer" transform="translate(-525.000000, -75.000000)" fill="#4A4A4A">
            <g id="Group" transform="translate(417.000000, 73.000000)">
                <g id="instagram" transform="translate(108.970588, 2.539258)">
                    <g id="Instagram">
                        <path d="M25.0714221,6.71546132 C25.0505311,5.76752942 24.8529195,4.82967953 24.4869904,3.94179173 C24.1712683,3.17932926 23.6763404,2.48862834 23.0367176,1.91785077 C22.4086524,1.33656986 21.6486274,0.88678583 20.8096382,0.599861609 C19.8326351,0.26730999 18.8006553,0.0877231739 17.7575816,0.0687377135 C16.416461,0.0131787489 15.9883184,0 12.5735294,0 C9.15874044,0 8.73059779,0.0131787489 7.38947721,0.0687377135 C6.3464035,0.0877231739 5.31442371,0.26730999 4.33742059,0.599861609 C3.49843145,0.88678583 2.73840642,1.33656986 2.11034118,1.91785077 C1.47071839,2.48862834 0.975790547,3.17932926 0.660068382,3.94179173 C0.294139298,4.82967953 0.0965277534,5.76752942 0.0756367647,6.71546132 C0.0145014706,7.93425436 0,8.32334486 0,11.4266609 C0,14.529977 0.0145014706,14.9190675 0.0756367647,16.1378605 C0.0965277534,17.0857924 0.294139298,18.0236423 0.660068382,18.9115301 C0.975790547,19.6739926 1.47071839,20.3646935 2.11034118,20.9354711 C2.73838356,21.5167774 3.49841514,21.9665653 4.33742059,22.2534602 C5.31442371,22.5860118 6.3464035,22.7655987 7.38947721,22.7845841 C8.73059779,22.840232 9.15874044,22.8533218 12.5735294,22.8533218 C15.9883184,22.8533218 16.416461,22.840232 17.7575816,22.7845841 C18.8006553,22.7655987 19.8326351,22.5860118 20.8096382,22.2534602 C22.4985907,21.659831 23.833766,20.446441 24.4869765,18.9115428 C24.8529056,18.023655 25.0505171,17.0858051 25.0714081,16.1378732 C25.1325574,14.9190675 25.1470588,14.529977 25.1470588,11.4266609 C25.1470588,8.32334486 25.1325574,7.93425436 25.0714221,6.71546132 L25.0714221,6.71546132 Z M22.8082846,16.0440222 C22.7988477,16.768593 22.6523787,17.4862934 22.3752801,18.16575 C21.95233,19.1623173 21.0855939,19.9500005 19.9890059,20.3343779 C19.241351,20.5861927 18.4516184,20.7193015 17.654325,20.7278867 C16.3286419,20.7828109 15.931025,20.7944407 12.5735294,20.7944407 C9.21603382,20.7944407 8.81841691,20.7828109 7.49273382,20.727874 C6.69544124,20.7192929 5.90570863,20.5861883 5.15805294,20.3343779 C4.61190111,20.1512418 4.1178723,19.859167 3.71230662,19.4796383 C3.29467865,19.1110631 2.97328404,18.6620915 2.77176471,18.16575 C2.4946662,17.4862934 2.34819717,16.768593 2.33876029,16.0440222 C2.27832353,14.8390935 2.26552647,14.4777571 2.26552647,11.4266609 C2.26552647,8.3755647 2.27832353,8.01422829 2.33877426,6.80929959 C2.34821664,6.08473041 2.49468063,5.36703162 2.77176471,4.6875718 C2.97328182,4.19123608 3.29467147,3.74226909 3.71229265,3.37369624 C4.11786094,2.99416134 4.6118948,2.70208209 5.15805294,2.51894392 C5.90570779,2.26712916 6.69544043,2.13402028 7.49273382,2.12543511 C8.81859853,2.07051096 9.21620147,2.05888116 12.5735294,2.05888116 C15.9308574,2.05888116 16.3284603,2.07051096 17.654325,2.1254478 C18.4516184,2.13403298 19.241351,2.26714186 19.9890059,2.51895661 C20.5351577,2.70209276 21.0291865,2.99416752 21.4347522,3.37369624 C21.8523784,3.7422678 22.1737729,4.1912349 22.3752941,4.6875718 C22.652383,5.36703086 22.7988517,6.08472967 22.8082985,6.80929959 C22.8687493,8.01417751 22.8815463,8.37564088 22.8815463,11.4266609 C22.8815463,14.4776809 22.8687353,14.8390935 22.8082846,16.0440222 L22.8082846,16.0440222 Z M12.5735294,5.55889279 C9.00759084,5.55889279 6.11682647,8.18598206 6.11682647,11.4266609 C6.11682647,14.6673398 9.00759084,17.294429 12.5735294,17.294429 C16.139468,17.294429 19.0302324,14.6673398 19.0302324,11.4266609 C19.0301938,8.18599658 16.139452,5.55892785 12.5735294,5.55889279 L12.5735294,5.55889279 Z M12.5735294,15.2355479 C10.2588066,15.2355479 8.38235294,13.5302511 8.38235294,11.4266609 C8.38235294,9.32307073 10.2588066,7.61777394 12.5735294,7.61777394 C14.8882523,7.61777394 16.7647059,9.32307073 16.7647059,11.4266609 C16.7647059,12.4368405 16.3231368,13.4056459 15.5371387,14.1199507 C14.7511407,14.8342556 13.6850985,15.2355479 12.5735294,15.2355479 L12.5735294,15.2355479 Z M20.7941309,5.32710932 C20.7941309,6.08440179 20.1186076,6.69830863 19.2853074,6.69830863 C18.4520071,6.69830863 17.7764838,6.08440179 17.7764838,5.32710932 C17.7764838,4.56981685 18.4520071,3.95591001 19.2853074,3.95591001 C20.1186076,3.95591001 20.7941309,4.56981685 20.7941309,5.32710932 L20.7941309,5.32710932 Z" id="Shape"></path>
                    </g>
                </g>
            </g>
        </g>
    </g>
</svg>