<?xml version="1.0" encoding="UTF-8" standalone="no"?>
<svg width="26px" height="20px" viewBox="0 0 26 20" version="1.1" xmlns="http://www.w3.org/2000/svg" xmlns:xlink="http://www.w3.org/1999/xlink">
    <!-- Generator: Sketch 40.3 (33839) - http://www.bohemiancoding.com/sketch -->
    <title>twitter</title>
    <desc>Created with Sketch.</desc>
    <defs></defs>
    <g id="Wireframes-&amp;-Mockups" stroke="none" stroke-width="1" fill="none" fill-rule="evenodd">
        <g id="Footer" transform="translate(-471.000000, -78.000000)" fill="#4A4A4A">
            <g id="Group" transform="translate(417.000000, 73.000000)">
                <g id="twitter" transform="translate(53.088235, 5.078516)">
                    <g id="Twitter">
                        <path d="M24.1914706,5.39084469 C24.2026471,5.59652459 24.2068382,5.80474374 24.2068382,6.01042364 C24.2068382,12.3458723 18.9022059,19.6487783 9.20242647,19.6487783 C6.2225,19.6487783 3.45213235,18.8552601 1.11764706,17.4942179 C1.53117647,17.5386549 1.95029412,17.5615082 2.375,17.5615082 C4.84779412,17.5615082 7.12080882,16.7946523 8.92441176,15.5110574 C6.61786765,15.4716989 4.66897059,14.0878033 3.99838235,12.1833598 C4.31970588,12.2379538 4.65080882,12.2671553 4.99029412,12.2671553 C5.47227941,12.2671553 5.93889706,12.210022 6.38036765,12.1008339 C3.96764706,11.659003 2.15007353,9.72281881 2.15007353,7.39939776 L2.15007353,7.33972519 C2.86117647,7.6990302 3.67566176,7.91486713 4.53904412,7.94025971 C3.12382353,7.07945125 2.19198529,5.6142994 2.19198529,3.94981579 C2.19198529,3.07250216 2.45183824,2.24851294 2.90727941,1.54005997 C5.50720588,4.44116221 9.39522059,6.34814495 13.7777941,6.54874633 C13.6883824,6.1970591 13.6422794,5.83267558 13.6422794,5.45559577 C13.6422794,2.80968896 16.0019118,0.665285591 18.9147794,0.665285591 C20.4319853,0.665285591 21.8025,1.24550604 22.7650735,2.17741372 C23.9651471,1.96157679 25.0939706,1.56291329 26.1138235,1.01443356 C25.7198529,2.1329767 24.8830147,3.07250216 23.7947059,3.6654189 C24.8620588,3.54861303 25.8763235,3.2934176 26.8235294,2.91125928 C26.1166176,3.87363805 25.2225,4.7166717 24.1914706,5.39084469 L24.1914706,5.39084469 Z" id="Shape"></path>
                    </g>
                </g>
            </g>
        </g>
    </g>
</svg>