<?xml version="1.0" encoding="UTF-8" standalone="no"?>
<svg width="184px" height="363px" viewBox="0 0 184 363" version="1.1" xmlns="http://www.w3.org/2000/svg" xmlns:xlink="http://www.w3.org/1999/xlink">
    <!-- Generator: Sketch 40.3 (33839) - http://www.bohemiancoding.com/sketch -->
    <title>Artboard Copy</title>
    <desc>Created with Sketch.</desc>
    <defs></defs>
    <g id="Icons" stroke="none" stroke-width="1" fill="none" fill-rule="evenodd">
        <g id="Artboard-Copy" stroke="#FFFFFF" stroke-width="5">
            <g id="Page-1" transform="translate(7.000000, 3.000000)">
                <path d="M100.622197,43.9622393 C101.21629,50.3206656 100.726557,55.7077638 100.135182,59.5284663 C99.0546171,64.6712393 98.1697282,68.8839479 94.7785601,72.6628436 C92.9093138,74.7461227 89.6366381,76.9700245 83.0907432,81.4183712 C80.2230075,83.3675429 78.4526862,84.4599479 77.7341216,86.769635 C76.9378303,89.3285337 77.8058694,92.187681 79.1951667,94.0662699 C80.4317282,95.7379969 81.7128604,96.1332607 84.0647733,97.4710767 C88.3283288,99.896411 91.4526171,102.768046 92.8305,104.281776 C95.65747,107.386334 96.5157252,110.684181 97.7006502,115.469696 C98.4235631,118.390739 99.6873018,124.575423 99.1616952,133.468316 C98.5512958,143.782095 96.1096982,147.998061 99.1616952,151.953414 C100.776563,154.047009 103.092059,154.979788 104.031302,155.358221 C107.25071,156.655859 124.994314,159.5 130.5,159.5 L146,159.5 C152,159.5 152.386703,158.258828 154.5,159.5 C157.542757,161.286288 158.956517,171.297994 159,171.897405 C159.308189,176.121515 144.468655,175.262733 143,175.5 C141.367195,175.763328 128.511959,173.639172 121.07574,171.897405 C111.089758,169.558942 108.51608,168.228184 103.544287,168.492598 C100.391191,168.660368 97.8522988,169.385742 96.2396051,169.952034 C94.7899745,175.57477 93.317515,180.124104 92.2168393,183.294359 C89.3366021,191.591098 83.8859474,207.291433 80.1306051,211.114307 C79.8311126,211.418899 78.7837042,212.421175 78.8168604,213.738902 C78.8511036,215.096807 80.0159174,216.107227 80.6562117,216.625739 C84.7034369,219.90404 117.739687,244.283582 118.753179,246.020227 C121.07574,250 118.460209,256.372012 117.439434,258.879874 C94.8899865,314.286304 92.8305,315 89.5,321.5 C89.2695575,321.949745 86.1150195,327.400049 84.0718393,328.428387 C82.731461,329.102724 80.9078724,329.013681 79.9126441,328.151485 C78.0042628,326.498218 96.8701156,260.410979 96.5494249,258.90865 C94.3761354,248.745173 79.9126441,242 71.5,236.056647 C63.0873559,230.113294 61.3930285,233.5 61.3930285,236.056647 C61.3930285,249.220592 59.2699474,265.607503 54.6802658,283.835788 C48.859458,306.95492 40.2926682,325.497028 32.775461,338.953371 C27.861363,347.749961 40.5725931,211.050782 51.7011036,139.60685 C55.5222147,115.073347 57.4952778,110.455601 61.3783529,82.0661043 C64.244458,61.1106074 69.9456862,40.6236718 73.2156441,19.7278988 C74.7641997,9.8283865 75.5327703,3.86033742 78.7081517,3.10075767 C85.1757763,1.55390798 98.6023889,22.3389202 100.622197,43.9622393 Z" id="Stroke-1"></path>
                <path d="M170.880149,23.5511531 L128.703344,312.348371" id="Stroke-3"></path>
                <path d="M0.417498498,353.799273 L175.927709,321.182408" id="Stroke-5"></path>
                <path d="M30.3546267,26.3199 C32.4287889,27.4704 36.049876,29.220854 40.811861,30.1183417 C48.5540952,31.5777773 55.0211763,29.9728325 59.3494135,28.6936546 C70.5540201,25.3833202 133.02511,0.205884663 133.02511,0.205884663" id="Stroke-7"></path>
                <path d="M97.7687333,116.126279 C86.7880667,106.80066 76.5727093,101.09051 69.241394,97.6221782 C57.6910937,92.1585248 51.6811327,91.4939604 47.0120937,91.7008224 C47.0120937,91.7008224 39.7519826,92.0233316 32.5630757,95.402077 C12.3231447,104.913927 0.5,139.106964 0.5,168 C0.5,175 2,219 21,219 C40,219 43.4678709,200.825485 44,198" id="Stroke-9"></path>
            </g>
        </g>
    </g>
</svg>