<?xml version="1.0" encoding="UTF-8" standalone="no"?>
<svg width="27px" height="25px" viewBox="0 0 27 25" version="1.1" xmlns="http://www.w3.org/2000/svg" xmlns:xlink="http://www.w3.org/1999/xlink">
    <!-- Generator: Sketch 40.3 (33839) - http://www.bohemiancoding.com/sketch -->
    <title>youtube-with-circle</title>
    <desc>Created with Sketch.</desc>
    <defs></defs>
    <g id="Wireframes-&amp;-Mockups" stroke="none" stroke-width="1" fill="none" fill-rule="evenodd">
        <g id="Footer" transform="translate(-579.000000, -73.000000)" fill="#4A4A4A">
            <g id="Group" transform="translate(417.000000, 73.000000)">
                <g id="youtube-with-circle" transform="translate(162.058824, 0.000000)">
                    <g id="Youtube_w_x2F__circle">
                        <path d="M15.65125,11.9764103 L12.5134559,10.6458391 C12.2396324,10.5303028 12.0147059,10.659805 12.0147059,10.9353145 L12.0147059,13.4415621 C12.0147059,13.7170716 12.2396324,13.8465738 12.5134559,13.7310375 L15.6498529,12.4004664 C15.9250735,12.2836605 15.9250735,12.0932161 15.65125,11.9764103 L15.65125,11.9764103 Z M13.4117647,0 C6.00455882,0 0,5.4568654 0,12.1884383 C0,18.9200112 6.00455882,24.3768766 13.4117647,24.3768766 C20.8189706,24.3768766 26.8235294,18.9200112 26.8235294,12.1884383 C26.8235294,5.4568654 20.8189706,0 13.4117647,0 L13.4117647,0 Z M13.4117647,17.1399914 C6.54661765,17.1399914 6.42647059,16.5775457 6.42647059,12.1884383 C6.42647059,7.79933089 6.54661765,7.23688525 13.4117647,7.23688525 C20.2769118,7.23688525 20.3970588,7.79933089 20.3970588,12.1884383 C20.3970588,16.5775457 20.2769118,17.1399914 13.4117647,17.1399914 L13.4117647,17.1399914 Z" id="Shape"></path>
                    </g>
                </g>
            </g>
        </g>
    </g>
</svg>